<?xml version="1.0" encoding="UTF-8" standalone="no"?>
<!-- Created with Inkscape (http://www.inkscape.org/) -->

<svg
   version="1.1"
   id="svg1"
   width="1333.3333"
   height="1333.3333"
   viewBox="0 0 1333.3333 1333.3333"
   sodipodi:docname="AlteaON_Logo_rgb.pdf"
   inkscape:export-filename="AlteaON_Logo_rgb.svg"
   inkscape:export-xdpi="96"
   inkscape:export-ydpi="96"
   inkscape:export-batch-path="C:\Users\plongo\Downloads\AlteaON_Logo\AlteaON_Logo\Midnight blue and Green Rio Grande"
   inkscape:export-batch-name="favicon"
   xmlns:inkscape="http://www.inkscape.org/namespaces/inkscape"
   xmlns:sodipodi="http://sodipodi.sourceforge.net/DTD/sodipodi-0.dtd"
   xmlns="http://www.w3.org/2000/svg"
   xmlns:svg="http://www.w3.org/2000/svg">
  <defs
     id="defs1">
    <clipPath
       clipPathUnits="userSpaceOnUse"
       id="clipPath14">
      <path
         d="M 0,1000 H 4840.606 V 0 H 0 Z"
         transform="translate(-929.14802,-2.5000001e-5)"
         id="path14" />
    </clipPath>
    <clipPath
       clipPathUnits="userSpaceOnUse"
       id="clipPath16">
      <path
         d="M 0,1000 H 4840.606 V 0 H 0 Z"
         transform="translate(-577.51301,-794.24662)"
         id="path16" />
    </clipPath>
    <clipPath
       clipPathUnits="userSpaceOnUse"
       id="clipPath18">
      <path
         d="M 0,1000 H 4840.606 V 0 H 0 Z"
         transform="translate(-793.63772,-222.48198)"
         id="path18" />
    </clipPath>
  </defs>
  <sodipodi:namedview
     id="namedview1"
     pagecolor="#505050"
     bordercolor="#eeeeee"
     borderopacity="1"
     inkscape:showpageshadow="0"
     inkscape:pageopacity="0"
     inkscape:pagecheckerboard="0"
     inkscape:deskcolor="#505050" />
  <g
     id="layer-MC0"
     inkscape:groupmode="layer"
     inkscape:label="Livello 1"
     sodipodi:insensitive="true"
     transform="translate(-3.09716e-5,-3.3333334e-5)">
    <path
       id="path13"
       d="m 0,0 h -858.296 c -39.131,0 -70.852,31.722 -70.852,70.852 v 858.296 c 0,39.131 31.721,70.852 70.852,70.852 H 0 c 39.13,0 70.852,-31.721 70.852,-70.852 V 70.852 C 70.852,31.722 39.13,0 0,0"
       style="fill:#081928;fill-opacity:1;fill-rule:nonzero;stroke:none"
       transform="matrix(1.3333333,0,0,-1.3333333,1238.864,1333.3333)"
       clip-path="url(#clipPath14)" />
    <path
       id="path15"
       d="m 0,0 h -128.984 l -175.949,-465.603 c 35.304,39.196 85.41,74.393 146.886,103.86 l 88.663,242.095 66.201,-186.512 c 33.928,8.862 69.551,16.331 106.6,22.263 z"
       style="fill:#ffffff;fill-opacity:1;fill-rule:nonzero;stroke:none"
       transform="matrix(1.3333333,0,0,-1.3333333,770.01733,274.33787)"
       clip-path="url(#clipPath16)" />
    <path
       id="path17"
       d="m 0,0 -70.969,215.471 c -3.899,11.828 -14.309,13.583 -20.314,13.59 -0.389,0.002 -0.82,0.018 -1.174,0.006 -37.576,-3.951 -73.902,-9.568 -108.726,-16.623 -72.408,-14.674 -138.137,-35.717 -194.366,-61.727 -61.906,-28.631 -112.214,-63.279 -147.24,-102.058 -13.35,-14.779 -24.567,-30.132 -33.247,-46.007 -3.482,-6.374 -6.442,-12.851 -9.132,-19.381 h 6.568 11.105 94.709 16.484 0.243 c 12.232,11.301 26.339,22.277 42.344,32.793 57.946,38.082 140.18,70.209 243.916,90.333 0.89,0.175 2.752,0.719 4.093,0.757 0.397,0.01 0.779,-0.035 1.022,-0.126 0.146,-0.058 0.389,-0.22 0.466,-0.414 9.131,-22.168 31.613,-90.519 31.613,-90.519 l 11.662,-32.824 h 34.699 84.5 7.255 z"
       style="fill:#b2d600;fill-opacity:1;fill-rule:nonzero;stroke:none"
       transform="matrix(1.3333333,0,0,-1.3333333,1058.1836,1036.6907)"
       clip-path="url(#clipPath18)" />
  </g>
</svg>
