<?xml version="1.0" encoding="UTF-8" standalone="no"?>
<!-- Created with Inkscape (http://www.inkscape.org/) -->

<svg
   version="1.1"
   id="svg1"
   width="1333.3334"
   height="1333.3329"
   viewBox="0 0 1333.3334 1333.3329"
   xmlns="http://www.w3.org/2000/svg"
   xmlns:svg="http://www.w3.org/2000/svg">
  <defs
     id="defs1">
    <clipPath
       clipPathUnits="userSpaceOnUse"
       id="clipPath5">
      <path
         d="M 0,1000 H 4840.606 V 0 H 0 Z"
         transform="translate(-2378.9836,-150.27933)"
         id="path5" />
    </clipPath>
    <clipPath
       clipPathUnits="userSpaceOnUse"
       id="clipPath7">
      <path
         d="M 0,1000 H 4840.606 V 0 H 0 Z"
         transform="translate(-2941.7337,-531.53672)"
         id="path7" />
    </clipPath>
    <clipPath
       clipPathUnits="userSpaceOnUse"
       id="clipPath9">
      <path
         d="M 0,1000 H 4840.606 V 0 H 0 Z"
         transform="translate(-3481.2474,-250.43731)"
         id="path9" />
    </clipPath>
    <clipPath
       clipPathUnits="userSpaceOnUse"
       id="clipPath11">
      <path
         d="M 0,1000 H 4840.606 V 0 H 0 Z"
         transform="translate(-4115.065,-226.59558)"
         id="path11" />
    </clipPath>
    <clipPath
       clipPathUnits="userSpaceOnUse"
       id="clipPath13">
      <path
         d="M 0,1000 H 4840.606 V 0 H 0 Z"
         transform="translate(-4371.8722,-707.42022)"
         id="path13" />
    </clipPath>
    <clipPath
       clipPathUnits="userSpaceOnUse"
       id="clipPath15">
      <path
         d="M 0,1000 H 4840.606 V 0 H 0 Z"
         transform="translate(-791.89329,-205.75338)"
         id="path15" />
    </clipPath>
  </defs>
  <g
     id="g1"
     transform="translate(-3.9306308e-4,-3.3141554e-5)">
    <g
       id="group-MC0">
      <path
         id="path2"
         d="M 0,0 -96.282,272.244 -196.994,0 Z M -170.433,421.649 H -9.961 L 256.753,-313.198 H 108.458 l -69.723,196.994 h -274.464 l -73.042,-196.994 h -138.337 z"
         style="fill:#ffffff;fill-opacity:1;fill-rule:nonzero;stroke:none"
         transform="matrix(1.3333333,0,0,-1.3333333,2321.2829,736.75787)" />
      <path
         id="path3"
         d="m 2050.839,869.081 h 137.228 V 134.234 h -137.228 z"
         style="fill:#ffffff;fill-opacity:1;fill-rule:nonzero;stroke:none"
         transform="matrix(1.3333333,0,0,-1.3333333,0,1333.3333)" />
      <path
         id="path4"
         d="m 0,0 c -18.088,10.685 -30.625,26.01 -37.628,45.932 -7.018,19.915 -10.513,45.371 -10.513,76.36 v 274.464 h -75.257 v 109.56 h 75.257 v 99.603 L 83.554,680.067 V 506.316 H 187.588 V 396.756 H 83.554 V 135.571 c 0,-13.279 2.94,-22.876 8.855,-28.77 5.897,-5.915 15.495,-8.855 28.777,-8.855 h 61.971 V -16.046 H 75.808 C 43.335,-16.046 18.071,-10.7 0,0"
         style="fill:#ffffff;fill-opacity:1;fill-rule:nonzero;stroke:none"
         transform="matrix(1.3333333,0,0,-1.3333333,3171.9781,1132.9609)"
         clip-path="url(#clipPath5)" />
      <path
         id="path6"
         d="m 0,0 c -19.922,19.18 -47.971,28.777 -84.112,28.777 -33.201,0 -61.056,-10.152 -83.554,-30.434 -22.512,-20.304 -36.713,-48.519 -42.607,-84.66 H 33.201 C 30.989,-47.964 19.922,-19.194 0,0 m -217.468,-374.059 c -39.48,21.384 -70.102,52.373 -91.854,92.96 -21.773,40.564 -32.649,87.794 -32.649,141.659 0,53.844 11.24,101.433 33.752,142.762 22.501,41.314 53.487,73.6 92.967,96.836 39.459,23.244 84.278,34.865 134.461,34.865 78.939,0 140.723,-24.18 185.373,-72.49 44.632,-48.332 66.957,-114.179 66.957,-197.549 v -45.371 h -379.6 c 4.427,-38.374 18.261,-67.893 41.501,-88.536 23.244,-20.664 53.678,-30.989 91.303,-30.989 36.141,0 64.19,7.364 84.112,22.134 19.919,14.749 34.671,34.671 44.268,59.759 l 118.416,-42.056 c -19.922,-45.01 -50.184,-80.61 -90.748,-106.794 -40.586,-26.198 -92.968,-39.289 -157.154,-39.289 -54.611,0 -101.646,10.685 -141.105,32.099"
         style="fill:#ffffff;fill-opacity:1;fill-rule:nonzero;stroke:none"
         transform="matrix(1.3333333,0,0,-1.3333333,3922.3115,624.61773)"
         clip-path="url(#clipPath7)" />
      <path
         id="path8"
         d="m 0,0 c 26.922,21.392 41.501,54.226 43.717,98.494 v 45.377 C 31.904,137.956 18.816,132.804 4.427,128.38 c -14.388,-4.431 -33.028,-9.237 -55.889,-14.388 -9.598,-2.212 -18.813,-4.431 -27.668,-6.643 -30.989,-8.855 -54.42,-18.813 -70.275,-29.88 -15.876,-11.067 -23.794,-27.307 -23.794,-48.692 0,-17.71 6.815,-32.286 20.476,-43.72 13.64,-11.442 31.904,-17.148 54.781,-17.148 38.352,0 70.999,10.685 97.942,32.091 m -261.181,-87.427 c -32.841,28.028 -49.247,64.551 -49.247,109.561 0,37.625 8.473,67.13 25.452,88.536 16.965,21.392 39.459,37.625 67.508,48.692 28.032,11.067 65.296,21.76 111.78,32.099 14.749,2.94 29.498,5.894 44.268,8.855 39.095,7.364 65.847,13.639 80.236,18.812 14.385,5.152 22.685,12.898 24.901,23.237 v 6.643 c 0,16.961 -8.127,31.349 -24.35,43.158 -16.236,11.795 -41.328,17.711 -75.253,17.711 -33.947,0 -60.509,-7.746 -79.685,-23.244 -19.194,-15.491 -28.773,-35.413 -28.773,-59.759 v -6.643 h -135.017 c 2.212,59.766 25.261,107.356 69.169,142.769 43.886,35.413 102.73,53.123 176.518,53.123 72.296,0 127.998,-16.601 167.111,-49.802 39.098,-33.201 58.653,-84.112 58.653,-152.726 V -24.346 -116.204 H 42.607 v 70.826 c -16.982,-27.3 -40.031,-48.137 -69.169,-62.525 -29.151,-14.389 -63.271,-21.58 -102.369,-21.58 -55.336,0 -99.431,14.007 -132.25,42.056"
         style="fill:#ffffff;fill-opacity:1;fill-rule:nonzero;stroke:none"
         transform="matrix(1.3333333,0,0,-1.3333333,4641.6631,999.41693)"
         clip-path="url(#clipPath9)" />
      <path
         id="path10"
         d="m 0,0 c 28.485,17.271 50.497,42.301 66.038,75.106 15.538,32.797 23.309,71.928 23.309,117.4 v 4.315 c 0,44.305 -7.638,82.866 -22.877,115.671 -15.257,32.805 -36.983,57.972 -65.177,75.531 -28.201,17.552 -61.582,26.327 -100.133,26.327 -38.561,0 -72.227,-8.631 -100.997,-25.895 -28.784,-17.263 -50.929,-42.164 -66.467,-74.666 -15.541,-32.524 -23.309,-71.518 -23.309,-116.968 v -3.458 c 0,-44.888 7.623,-83.882 22.877,-116.967 15.238,-33.093 36.969,-58.412 65.173,-75.964 28.19,-17.558 61.572,-26.327 100.133,-26.327 39.131,0 72.944,8.632 101.43,25.895 m -247.315,-65.602 c -42.017,24.735 -74.385,59.701 -97.114,104.884 -22.739,45.169 -34.094,96.815 -34.094,154.946 0,58.7 11.503,110.497 34.526,155.385 23.014,44.887 55.815,79.695 98.408,104.445 42.582,24.742 91.785,37.12 147.614,37.12 54.665,0 102.856,-12.378 144.588,-37.12 41.718,-24.75 74.09,-59.709 97.117,-104.878 23.006,-45.183 34.527,-96.829 34.527,-154.952 0,-58.7 -11.521,-110.49 -34.527,-155.378 -23.027,-44.888 -55.828,-79.717 -98.41,-104.452 -42.593,-24.75 -91.797,-37.121 -147.614,-37.121 -54.68,0 -103.019,12.371 -145.021,37.121"
         style="fill:#ffffff;fill-opacity:1;fill-rule:nonzero;stroke:none"
         transform="matrix(1.3333333,0,0,-1.3333333,5486.7532,1031.2059)"
         clip-path="url(#clipPath11)" />
      <path
         id="path12"
         d="M 0,0 H 99.272 L 384.997,-429.027 V 0 h 83.737 V -574.051 H 385.861 L 83.73,-121.716 V -573.187 H 0 Z"
         style="fill:#ffffff;fill-opacity:1;fill-rule:nonzero;stroke:none"
         transform="matrix(1.3333333,0,0,-1.3333333,5829.1628,390.1064)"
         clip-path="url(#clipPath13)" />
      <path
         id="path14"
         d="m 0,0 h -84.5 -34.699 l -11.661,32.824 c 0,0 -22.482,68.351 -31.614,90.519 -0.076,0.193 -0.32,0.356 -0.465,0.413 -0.244,0.092 -0.626,0.137 -1.022,0.127 -1.341,-0.039 -3.204,-0.582 -4.093,-0.757 C -271.791,103.001 -354.025,70.875 -411.97,32.792 -427.975,22.277 -442.083,11.3 -454.314,0 h -0.243 -16.485 -94.708 -11.106 -6.567 c 2.689,6.529 5.65,13.007 9.131,19.38 8.681,15.876 19.897,31.228 33.247,46.008 35.026,38.778 85.334,73.426 147.241,102.058 56.229,26.01 121.958,47.052 194.365,61.726 34.825,7.056 71.15,12.673 108.726,16.623 0.355,0.012 0.786,-0.003 1.175,-0.005 6.004,-0.007 16.415,-1.762 20.313,-13.59 L 1.744,16.729 7.255,0 Z m -343.364,588.493 h 128.984 l 103.416,-283.897 c -37.048,-5.932 -72.671,-13.401 -106.599,-22.262 L -283.765,468.845 -372.427,226.75 C -433.903,197.283 -484.01,162.086 -519.313,122.891 Z m 480.619,205.754 h -858.296 c -39.131,0 -70.852,-31.722 -70.852,-70.852 v -858.296 c 0,-39.131 31.721,-70.852 70.852,-70.852 h 858.296 c 39.13,0 70.852,31.721 70.852,70.852 v 858.296 c 0,39.13 -31.722,70.852 -70.852,70.852"
         style="fill:#ffffff;fill-opacity:1;fill-rule:nonzero;stroke:none"
         transform="matrix(1.3333333,0,0,-1.3333333,1055.8577,1058.9955)"
         clip-path="url(#clipPath15)" />
    </g>
  </g>
</svg>
